<svg width="16" height="17" viewBox="0 0 16 17" fill="none" xmlns="http://www.w3.org/2000/svg">
<path d="M10.8538 7.86678L6.21475 4.66336C6.0842 4.57322 5.9284 4.51791 5.76493 4.50367C5.60146 4.48943 5.43686 4.51683 5.2897 4.58278C5.14254 4.64873 5.0187 4.7506 4.93216 4.87688C4.84563 5.00316 4.79984 5.14882 4.79999 5.29741L4.79999 11.7033C4.79998 11.8518 4.84586 11.9974 4.93245 12.1235C5.01904 12.2497 5.14289 12.3515 5.29003 12.4174C5.43716 12.4832 5.60171 12.5106 5.76511 12.4963C5.92851 12.4821 6.08425 12.4267 6.21475 12.3366L10.8538 9.13322C10.9615 9.05886 11.0487 8.96304 11.1087 8.85322C11.1688 8.7434 11.2 8.62252 11.2 8.5C11.2 8.37748 11.1688 8.2566 11.1087 8.14678C11.0487 8.03696 10.9615 7.94114 10.8538 7.86678Z" fill="white"/>
</svg>
