<svg width="16" height="17" viewBox="0 0 16 17" fill="none" xmlns="http://www.w3.org/2000/svg">
<path d="M7.99999 2.8999C4.90776 2.8999 2.39999 5.40678 2.39999 8.4999C2.39999 11.593 4.90776 14.0999 7.99999 14.0999C11.0922 14.0999 13.6 11.593 13.6 8.4999C13.6 5.40678 11.0922 2.8999 7.99999 2.8999ZM7.99999 13.1668C5.42698 13.1668 3.33378 11.0734 3.33378 8.4999C3.33378 5.92638 5.42698 3.83301 7.99999 3.83301C10.573 3.83301 12.6662 5.92638 12.6662 8.4999C12.6662 11.0734 10.573 13.1668 7.99999 13.1668ZM7.99999 5.18098C7.71048 5.18098 7.47533 5.41766 7.47533 5.70602V9.28747C7.47533 9.57583 7.71184 9.81251 7.99999 9.81251C8.28951 9.81251 8.52465 9.57583 8.52465 9.28747V5.70602C8.52465 5.41766 8.28815 5.18098 7.99999 5.18098ZM7.99999 10.3865C7.71048 10.3865 7.47533 10.6232 7.47533 10.9116V11.2938C7.47533 11.5821 7.71184 11.8188 7.99999 11.8188C8.28951 11.8188 8.52465 11.5821 8.52465 11.2938V10.9116C8.52465 10.6218 8.28815 10.3865 7.99999 10.3865Z" fill="white"/>
</svg>
