<svg width="24" height="25" viewBox="0 0 24 25" fill="none" xmlns="http://www.w3.org/2000/svg">
<path d="M3 2.49951C3.552 2.49951 4.0005 2.94801 4.0005 3.50001V14.4995C4.0005 16.1795 4.002 17.336 4.1205 18.2075C4.1565 18.4895 4.206 18.725 4.2645 18.9245C4.66082 17.0173 5.21369 15.1459 5.9175 13.3295C6.411 12.0875 7.0005 10.8845 7.68 9.97701C8.325 9.11601 9.24 8.26401 10.428 8.26401C11.286 8.26401 11.9175 8.71401 12.36 9.18201C12.7785 9.62451 13.125 10.1885 13.404 10.6445L13.4235 10.676C13.7355 11.186 13.9785 11.5745 14.2335 11.849C14.4765 12.1085 14.61 12.134 14.6865 12.134C14.9415 12.134 15.252 11.996 15.6555 11.2895C16.044 10.61 16.356 9.68901 16.716 8.62401L16.7595 8.49651C17.1165 7.44201 17.5275 6.24501 18.1095 5.31651C18.708 4.37001 19.6155 3.50001 21 3.50001C21.1345 3.4948 21.2688 3.5168 21.3946 3.56469C21.5204 3.61259 21.6353 3.68539 21.7324 3.77874C21.8294 3.87209 21.9066 3.98406 21.9593 4.10796C22.0121 4.23185 22.0392 4.36511 22.0392 4.49976C22.0392 4.63441 22.0121 4.76767 21.9593 4.89157C21.9066 5.01546 21.8294 5.12744 21.7324 5.22079C21.6353 5.31414 21.5204 5.38694 21.3946 5.43483C21.2688 5.48273 21.1345 5.50472 21 5.49951C20.5995 5.49951 20.226 5.70951 19.8045 6.38151C19.3695 7.07301 19.0275 8.03451 18.6525 9.13851L18.5835 9.34251C18.2505 10.3325 17.88 11.4275 17.391 12.2825C16.869 13.1945 16.035 14.135 14.6865 14.135C13.8315 14.135 13.2045 13.6775 12.771 13.2125C12.366 12.7775 12.027 12.2255 11.751 11.7755L11.7195 11.723C11.409 11.2175 11.1645 10.829 10.9065 10.556C10.6635 10.298 10.521 10.2635 10.428 10.2635C10.239 10.2635 9.843 10.4225 9.282 11.1755C8.754 11.8805 8.241 12.896 7.776 14.0675C6.98997 16.0958 6.40711 18.1971 6.036 20.3405C6.1155 20.3555 6.201 20.369 6.2925 20.381C7.1625 20.498 8.322 20.501 10.0005 20.501H21C21.1345 20.4958 21.2688 20.5178 21.3946 20.5657C21.5204 20.6136 21.6353 20.6864 21.7324 20.7797C21.8294 20.8731 21.9066 20.9851 21.9593 21.109C22.0121 21.2329 22.0392 21.3661 22.0392 21.5008C22.0392 21.6354 22.0121 21.7687 21.9593 21.8926C21.9066 22.0165 21.8294 22.1284 21.7324 22.2218C21.6353 22.3151 21.5204 22.3879 21.3946 22.4358C21.2688 22.4837 21.1345 22.5057 21 22.5005H9.9285C8.3385 22.5005 7.0455 22.5005 6.0255 22.3625C4.962 22.22 4.047 21.9125 3.318 21.182C2.589 20.453 2.28 19.538 2.1375 18.473C1.9995 17.453 1.9995 16.16 1.9995 14.573V3.50001C1.9995 2.94801 2.448 2.49951 3 2.49951Z" fill="white"/>
</svg>
