<svg width="16" height="17" viewBox="0 0 16 17" fill="none" xmlns="http://www.w3.org/2000/svg">
<path d="M14.7316 6.41101H11.714C11.6225 6.41102 11.5319 6.39301 11.4474 6.35801C11.3629 6.32301 11.2861 6.2717 11.2214 6.20701C11.1567 6.14232 11.1054 6.06552 11.0703 5.981C11.0353 5.89647 11.0173 5.80588 11.0173 5.71439C11.0173 5.6229 11.0353 5.53231 11.0703 5.44778C11.1054 5.36326 11.1567 5.28646 11.2214 5.22177C11.2861 5.15708 11.3629 5.10577 11.4474 5.07077C11.5319 5.03577 11.6225 5.01776 11.714 5.01778H12.926C12.3697 4.22842 11.6318 3.58442 10.7745 3.1401C9.9171 2.69577 8.96547 2.46415 7.99983 2.46476C6.80621 2.46491 5.63944 2.819 4.64706 3.48226C3.65467 4.14553 2.88124 5.08817 2.42457 6.191C1.9679 7.29382 1.84848 8.50731 2.08144 9.678C2.31439 10.8487 2.88925 11.924 3.73331 12.768C4.57738 13.612 5.65275 14.1867 6.82344 14.4195C7.99413 14.6523 9.20757 14.5328 10.3103 14.076C11.4131 13.6191 12.3556 12.8456 13.0187 11.8531C13.6818 10.8606 14.0358 9.69375 14.0358 8.5001C14.0327 8.40676 14.0485 8.31375 14.0821 8.2266C14.1157 8.13946 14.1665 8.05997 14.2314 7.99286C14.2964 7.92574 14.3742 7.87238 14.4602 7.83593C14.5461 7.79948 14.6386 7.7807 14.732 7.7807C14.8254 7.7807 14.9178 7.79948 15.0038 7.83593C15.0898 7.87238 15.1676 7.92574 15.2325 7.99286C15.2975 8.05997 15.3483 8.13946 15.3819 8.2266C15.4155 8.31375 15.4313 8.40676 15.4282 8.5001C15.4282 12.6022 12.1018 15.9287 7.99983 15.9287C3.89781 15.9287 0.571442 12.6022 0.571442 8.5001C0.571442 4.39798 3.89781 1.07153 7.99983 1.07153C9.18087 1.07098 10.3449 1.35284 11.3949 1.8936C12.4449 2.43437 13.3503 3.21837 14.0358 4.1802V2.92868C14.0327 2.83533 14.0485 2.74232 14.0821 2.65518C14.1157 2.56804 14.1665 2.48854 14.2314 2.42143C14.2964 2.35431 14.3742 2.30095 14.4602 2.2645C14.5461 2.22805 14.6386 2.20927 14.732 2.20927C14.8254 2.20927 14.9178 2.22805 15.0038 2.2645C15.0898 2.30095 15.1676 2.35431 15.2325 2.42143C15.2975 2.48854 15.3483 2.56804 15.3819 2.65518C15.4155 2.74232 15.4313 2.83533 15.4282 2.92868V5.71439C15.4282 5.89914 15.3548 6.07633 15.2242 6.20697C15.0935 6.33761 14.9164 6.41101 14.7316 6.41101Z" fill="black"/>
</svg>
