<svg width="16" height="16" viewBox="0 0 16 16" fill="none" xmlns="http://www.w3.org/2000/svg">
<path d="M8.63322 10.8539L11.8366 6.21481C11.9268 6.08426 11.9821 5.92846 11.9963 5.76499C12.0106 5.60153 11.9832 5.43692 11.9172 5.28976C11.8513 5.1426 11.7494 5.01876 11.6231 4.93222C11.4968 4.84569 11.3512 4.79991 11.2026 4.80005L4.79674 4.80005C4.64821 4.80004 4.50264 4.84592 4.37646 4.93251C4.25028 5.0191 4.14851 5.14296 4.08264 5.29009C4.01677 5.43722 3.98942 5.60177 4.00368 5.76517C4.01795 5.92857 4.07325 6.08431 4.16336 6.21481L7.36678 10.8539C7.44114 10.9615 7.53696 11.0487 7.64678 11.1088C7.7566 11.1688 7.87748 11.2 8 11.2C8.12252 11.2 8.2434 11.1688 8.35322 11.1088C8.46304 11.0487 8.55886 10.9615 8.63322 10.8539Z" fill="#7685BC"/>
</svg>
