<svg width="24" height="24" viewBox="0 0 24 24" fill="none" xmlns="http://www.w3.org/2000/svg">
<path d="M19.1865 4.17383C19.4405 4.17401 19.6694 4.33533 19.7715 4.58008C19.8734 4.8272 19.8308 5.11281 19.6562 5.30957L15.2197 10.4443V18.1055C15.2197 18.3407 15.1037 18.5621 14.9131 18.6846C14.8111 18.7492 14.6956 18.7822 14.5801 18.7822C14.4802 18.7822 14.3801 18.7584 14.2871 18.708L11.0967 16.9775C10.7835 16.8071 10.6592 16.3982 10.8203 16.0645C10.9816 15.7335 11.3674 15.6021 11.6826 15.7725L13.9404 16.9961V10.1826C13.9405 10.0123 13.9996 9.84935 14.1084 9.72461L17.7314 5.53027H6.26855L9.88965 9.72461C9.99845 9.84934 10.0575 10.0123 10.0576 10.1826V13.29C10.0574 13.6643 9.77171 13.9667 9.41797 13.9668C9.06412 13.9668 8.77852 13.6644 8.77832 13.29V10.4443L4.3418 5.30957C4.16942 5.11279 4.12658 4.82489 4.22852 4.58008C4.33058 4.3329 4.55946 4.17395 4.81348 4.17383H19.1865ZM8.04492 15.0186C8.58762 15.0187 9.02965 15.4573 9.02637 16V16.4111C9.02633 16.954 8.58771 17.3924 8.04492 17.3926C7.50198 17.3926 7.06352 16.9541 7.06348 16.4111V16C7.06366 15.4572 7.50207 15.0186 8.04492 15.0186Z" fill="white"/>
</svg>
