<svg width="16" height="16" viewBox="0 0 16 16" fill="none" xmlns="http://www.w3.org/2000/svg">
<path d="M10.8539 7.36678L6.21481 4.16336C6.08426 4.07322 5.92846 4.01791 5.76499 4.00367C5.60153 3.98943 5.43692 4.01683 5.28976 4.08278C5.1426 4.14873 5.01876 4.2506 4.93222 4.37688C4.84569 4.50316 4.7999 4.64882 4.80005 4.79741L4.80005 11.2033C4.80004 11.3518 4.84592 11.4974 4.93251 11.6235C5.0191 11.7497 5.14296 11.8515 5.29009 11.9174C5.43722 11.9832 5.60177 12.0106 5.76517 11.9963C5.92857 11.9821 6.08431 11.9267 6.21481 11.8366L10.8539 8.63322C10.9615 8.55886 11.0487 8.46304 11.1088 8.35322C11.1688 8.2434 11.2 8.12252 11.2 8C11.2 7.87748 11.1688 7.7566 11.1088 7.64678C11.0487 7.53696 10.9615 7.44114 10.8539 7.36678Z" fill="#7685BC"/>
</svg>
