<svg width="14" height="14" viewBox="0 0 14 14" fill="none" xmlns="http://www.w3.org/2000/svg">
<g clip-path="url(#clip0_320_2186)">
<path d="M7 1.75C9.89844 1.75 12.25 4.10156 12.25 7C12.25 9.89844 9.89844 12.25 7 12.25C4.10156 12.25 1.75 9.89844 1.75 7C1.75 4.10156 4.10156 1.75 7 1.75ZM7 0.875C3.62031 0.875 0.875 3.62031 0.875 7C0.875 10.3797 3.62031 13.125 7 13.125C10.3797 13.125 13.125 10.3797 13.125 7C13.125 3.62031 10.3797 0.875 7 0.875ZM7.4375 10.5H6.5625V9.625H7.4375V10.5ZM7.59063 7.72187L7.51406 7.7875C7.47031 7.82031 7.4375 7.89688 7.4375 7.9625V8.76094H6.5625V7.9625C6.5625 7.62344 6.71563 7.30625 6.96719 7.09844L7.04375 7.03281C7.80938 6.42031 8.18125 6.10313 8.18125 5.55625C8.18125 4.9 7.65625 4.375 7 4.375C6.32188 4.375 5.81875 4.87812 5.81875 5.55625H4.94375C4.94375 4.40781 5.85156 3.5 7 3.5C8.1375 3.5 9.05625 4.41875 9.05625 5.55625C9.05625 6.55156 8.37813 7.09844 7.59063 7.72187Z" fill="#7685BC"/>
</g>
<defs>
<clipPath id="clip0_320_2186">
<rect width="14" height="14" fill="white"/>
</clipPath>
</defs>
</svg>
