<svg width="16" height="16" viewBox="0 0 16 16" fill="none" xmlns="http://www.w3.org/2000/svg">
<path d="M6.71683 3.2018C6.54731 3.2018 6.40563 3.2586 6.29003 3.37516L2.09003 7.57356C1.97435 7.6902 1.91699 7.83188 1.91699 8.0002C1.91699 8.1702 1.97435 8.31188 2.09003 8.42684L6.29003 12.6268C6.40571 12.7436 6.54731 12.8002 6.71683 12.8002C6.88851 12.8002 7.03203 12.7436 7.14555 12.6302C7.25955 12.5152 7.31675 12.3718 7.31675 12.2002C7.31675 12.0319 7.25875 11.8902 7.14355 11.7736L3.96475 8.6002H13.3168C13.4824 8.6002 13.6235 8.5418 13.741 8.42516C13.8584 8.30692 13.917 8.16692 13.917 8.0002C13.917 7.83516 13.8584 7.69356 13.741 7.57684C13.6234 7.4586 13.4823 7.4002 13.3168 7.4002H3.96475L7.14355 4.22684C7.25875 4.11188 7.31675 3.96852 7.31675 3.8002C7.31675 3.62852 7.25955 3.48516 7.14555 3.37188C7.03203 3.25684 6.88851 3.2002 6.71683 3.2002V3.2018Z" fill="white"/>
</svg>
