<svg width="16" height="17" viewBox="0 0 16 17" fill="none" xmlns="http://www.w3.org/2000/svg">
<path d="M12.2713 12.0035H11.0347C10.7423 12.0035 10.5053 11.7667 10.5053 11.4742C10.5053 11.1816 10.7424 10.9448 11.0347 10.9448H12.2713C12.39 10.9448 12.4864 10.8482 12.4864 10.7298V4.27745C12.4864 4.15904 12.3899 4.06242 12.2713 4.06242H5.81916C5.70047 4.06242 5.60412 4.15904 5.60412 4.27745V5.50009C5.60412 5.79277 5.36702 6.02947 5.07475 6.02947C4.78248 6.02947 4.54538 5.79263 4.54538 5.50009V4.27745C4.54538 3.5749 5.11687 3.00354 5.81929 3.00354H12.2715C12.9738 3.00354 13.5454 3.57476 13.5454 4.27745V10.7296C13.5452 11.4322 12.9736 12.0035 12.2713 12.0035Z" fill="white"/>
<path d="M9.41301 14.0035H3.67774C3.05349 14.0035 2.54538 13.4323 2.54538 12.7296V6.27745C2.54538 5.5749 3.05337 5.00354 3.67774 5.00354H9.41301C10.0373 5.00354 10.5454 5.57476 10.5454 6.27745V12.7296C10.5453 13.4323 10.0373 14.0035 9.41301 14.0035ZM3.67774 6.06242C3.57225 6.06242 3.48661 6.15904 3.48661 6.27745V12.7296C3.48661 12.848 3.57237 12.9447 3.67774 12.9447H9.41301C9.51851 12.9447 9.60415 12.848 9.60415 12.7296V6.27745C9.60415 6.15904 9.51839 6.06242 9.41301 6.06242H3.67774Z" fill="white"/>
</svg>
