<svg width="16" height="17" viewBox="0 0 16 17" fill="none" xmlns="http://www.w3.org/2000/svg">
<path d="M7.99999 2.90002C4.90776 2.90002 2.39999 5.4069 2.39999 8.50002C2.39999 11.5932 4.90776 14.1 7.99999 14.1C11.0922 14.1 13.6 11.5932 13.6 8.50002C13.6 5.4069 11.0922 2.90002 7.99999 2.90002ZM7.99999 13.1669C5.42698 13.1669 3.33378 11.0735 3.33378 8.50002C3.33378 5.9265 5.42698 3.83313 7.99999 3.83313C10.573 3.83313 12.6662 5.9265 12.6662 8.50002C12.6662 11.0735 10.573 13.1669 7.99999 13.1669ZM7.99999 5.1811C7.71048 5.1811 7.47533 5.41778 7.47533 5.70615V9.28759C7.47533 9.57595 7.71184 9.81263 7.99999 9.81263C8.28951 9.81263 8.52465 9.57595 8.52465 9.28759V5.70615C8.52465 5.41778 8.28815 5.1811 7.99999 5.1811ZM7.99999 10.3866C7.71048 10.3866 7.47533 10.6233 7.47533 10.9117V11.2939C7.47533 11.5823 7.71184 11.8189 7.99999 11.8189C8.28951 11.8189 8.52465 11.5823 8.52465 11.2939V10.9117C8.52465 10.622 8.28815 10.3866 7.99999 10.3866Z" fill="white"/>
</svg>
