<svg width="16" height="16" viewBox="0 0 16 16" fill="none" xmlns="http://www.w3.org/2000/svg">
<g clip-path="url(#clip0_98_15699)">
<path d="M1.6432 13.7141H14.3568C14.6557 13.7204 14.9403 13.8435 15.1495 14.0571C15.3587 14.2707 15.4759 14.5578 15.4759 14.8568C15.4759 15.1558 15.3587 15.4429 15.1495 15.6565C14.9403 15.8701 14.6557 15.9933 14.3568 15.9995H1.6432C1.49113 16.0027 1.33995 15.9755 1.19852 15.9195C1.0571 15.8635 0.928272 15.7799 0.819596 15.6734C0.710921 15.567 0.624581 15.44 0.565638 15.2997C0.506695 15.1595 0.476334 15.0089 0.476334 14.8568C0.476334 14.7047 0.506695 14.5541 0.565638 14.4139C0.624581 14.2737 0.710921 14.1466 0.819596 14.0402C0.928272 13.9338 1.0571 13.8501 1.19852 13.7941C1.33995 13.7381 1.49113 13.7109 1.6432 13.7141ZM7.88451 1.57149C7.90251 1.59149 7.91251 1.61049 7.93201 1.63099C8.32449 2.06597 8.86998 2.66046 9.53846 3.39193C10.1134 4.00691 10.6759 4.61939 11.1159 5.08538L4.8546 11.5747L4.45361 11.9707C4.03952 12.3829 3.47897 12.6143 2.89466 12.6141H1.10622C0.772729 12.6141 0.504238 12.3382 0.504238 11.9907V10.1707C0.503845 9.8544 0.566118 9.54114 0.687462 9.24902C0.808807 8.9569 0.986817 8.69172 1.21122 8.46877L1.5467 8.13378L7.88451 1.57099V1.57149ZM8.83998 0.60152C9.01629 0.416296 9.22833 0.268739 9.46328 0.167765C9.69823 0.066791 9.95121 0.0144954 10.2069 0.0140381C10.7219 0.0140381 11.2149 0.225531 11.5739 0.60052L12.1484 1.1955C12.9044 1.97748 12.9044 3.24444 12.1484 4.02441L12.0814 4.10441C10.9918 2.94505 9.91133 1.77722 8.83998 0.60102V0.60152Z" fill="white"/>
</g>
<defs>
<clipPath id="clip0_98_15699">
<rect width="16" height="16" fill="white"/>
</clipPath>
</defs>
</svg>
