<svg width="16" height="17" viewBox="0 0 16 17" fill="none" xmlns="http://www.w3.org/2000/svg">
<path d="M8 1.5C11.866 1.5 15 4.634 15 8.5C15 12.366 11.866 15.5 8 15.5C4.134 15.5 1 12.366 1 8.5C1 4.634 4.134 1.5 8 1.5ZM8 2.5C4.6865 2.5 2 5.1865 2 8.5C2 11.8135 4.6865 14.5 8 14.5C11.3135 14.5 14 11.8135 14 8.5C14 5.1865 11.3135 2.5 8 2.5ZM9.3855 5.1305L12.3565 8.1495C12.4487 8.24321 12.5003 8.36947 12.5002 8.50096C12.5 8.63244 12.448 8.75856 12.3555 8.852L9.3845 11.852C9.29114 11.9462 9.16418 11.9995 9.03155 12.0001C8.89891 12.0007 8.77147 11.9486 8.67725 11.8553C8.58303 11.7619 8.52976 11.6349 8.52915 11.5023C8.52854 11.3697 8.58064 11.2422 8.674 11.148L10.801 9H4.5C4.37753 8.99998 4.25933 8.95502 4.16781 8.87364C4.0763 8.79226 4.01783 8.68013 4.0035 8.5585L4 8.5C4 8.36739 4.05268 8.24021 4.14645 8.14645C4.24021 8.05268 4.36739 8 4.5 8H10.806L8.673 5.832C8.58765 5.74527 8.53685 5.63039 8.53013 5.50889C8.52341 5.38739 8.56123 5.26761 8.6365 5.172L8.6785 5.125C8.77299 5.03199 8.90056 4.98032 9.03314 4.98135C9.16572 4.98238 9.29247 5.03603 9.3855 5.1305Z" fill="#6B72FF"/>
</svg>
