<svg width="19" height="18" viewBox="0 0 19 18" fill="none" xmlns="http://www.w3.org/2000/svg">
<path d="M14.2705 12.8034C15.3072 11.6524 15.8954 10.1924 15.8954 8.6546C15.8955 5.11717 12.8691 2.25 9.13534 2.25C5.40159 2.25 2.37497 5.11734 2.37497 8.65443C2.37497 12.1917 5.40159 15.0592 9.13516 15.0592C9.80417 15.0597 10.4696 14.9662 11.1096 14.7816C11.2443 14.7417 11.357 14.653 11.423 14.5348C11.489 14.4166 11.5029 14.2784 11.4617 14.1504C11.4206 14.0225 11.3276 13.9152 11.2032 13.852C11.0788 13.7887 10.9331 13.7747 10.7978 13.8129C10.2588 13.9683 9.69852 14.047 9.13516 14.0465C5.99202 14.0463 3.44394 11.6323 3.44394 8.65443C3.44394 5.6767 5.99202 3.26272 9.13516 3.26272C12.2785 3.26272 14.8267 5.6767 14.8267 8.65443C14.8267 10.0672 14.2358 11.403 13.2042 12.4098C13.0912 12.5201 13.0285 12.6681 13.0297 12.8218C13.0309 12.9756 13.0959 13.1227 13.2106 13.2314L15.7156 15.6046C15.8161 15.6982 15.9516 15.7505 16.0926 15.75C16.2336 15.7495 16.3687 15.6962 16.4684 15.6017C16.5681 15.5073 16.6244 15.3793 16.625 15.2458C16.6256 15.1122 16.5704 14.9838 16.4715 14.8886L14.2705 12.8034Z" fill="#7685BC"/>
</svg>
